<svg width="89" height="88" viewBox="0 0 89 88" fill="none" xmlns="http://www.w3.org/2000/svg">
<path d="M76.336 44.4964H67.2485C67.2485 47.5885 66.5503 50.5364 65.287 53.1851C61.7737 60.6325 53.8718 65.8302 44.7067 65.8302C44.5551 65.8302 44.4087 65.8115 44.2578 65.8086V87.984C44.4081 87.9855 44.5563 87.9957 44.7067 87.9957C66.2954 87.9957 84.3709 73.0233 88.5157 53.1857V53.174L76.336 44.4964Z" fill="url(#paint0_linear_1_294)"/>
<path d="M76.3361 44.4964L64.1454 35.8078H48.7075V53.1851H65.287C61.7737 60.6325 53.8718 65.8302 44.7068 65.8302C44.5551 65.8302 44.4087 65.8115 44.2579 65.8086C32.0322 65.5792 22.165 56.1116 22.165 44.4964C22.165 32.7268 32.2723 23.1626 44.7068 23.1626C50.7022 23.1626 56.166 25.3901 60.1999 29.0031L75.8709 13.3324C67.8026 5.70759 56.809 0.997559 44.7068 0.997559C20.0592 0.997559 3.05176e-05 20.5138 3.05176e-05 44.4964C3.05176e-05 68.3324 19.817 87.7477 44.2579 87.984C44.4082 87.9855 44.5563 87.9957 44.7068 87.9957C66.2955 87.9957 84.3709 73.0233 88.5157 53.1856V53.174L76.3361 44.4964Z" fill="white"/>
<path d="M48.7075 53.1851V35.8078H64.1454L76.3361 44.4964L88.5158 53.174V53.1851H48.7075Z" fill="url(#paint1_linear_1_294)"/>
<path d="M48.7075 53.1851V35.8078H64.1454L76.3361 44.4964L88.5158 53.174V53.1851H48.7075Z" fill="url(#paint2_linear_1_294)"/>
<path d="M22.165 44.4964C22.165 32.7268 32.2722 23.1626 44.7067 23.1626C50.7022 23.1626 56.166 25.3902 60.1999 29.0031L75.8708 13.3324C67.8025 5.70763 56.8089 0.997589 44.7067 0.997589C20.0591 0.997589 -3.05176e-05 20.5139 -3.05176e-05 44.4964C-3.05176e-05 68.3324 19.817 87.7477 44.2578 87.9841V65.8087C32.0321 65.5792 22.165 56.1117 22.165 44.4964Z" fill="url(#paint3_linear_1_294)"/>
<defs>
<linearGradient id="paint0_linear_1_294" x1="71.6322" y1="43.4763" x2="60.8024" y2="77.3196" gradientUnits="userSpaceOnUse">
<stop stop-opacity="0.4"/>
<stop offset="0.27595" stop-color="#0F0D0D" stop-opacity="0.28962"/>
<stop offset="0.67484" stop-color="#1E1A1B" stop-opacity="0.13006"/>
<stop offset="1" stop-color="#231F20" stop-opacity="0"/>
</linearGradient>
<linearGradient id="paint1_linear_1_294" x1="48.7075" y1="44.4965" x2="88.5158" y2="44.4965" gradientUnits="userSpaceOnUse">
<stop offset="0.30327" stop-color="white" stop-opacity="0"/>
<stop offset="1" stop-color="white" stop-opacity="0.5"/>
</linearGradient>
<linearGradient id="paint2_linear_1_294" x1="48.7075" y1="44.4965" x2="88.5158" y2="44.4965" gradientUnits="userSpaceOnUse">
<stop stop-opacity="0.4"/>
<stop offset="0.2169" stop-color="#0F0E0E" stop-opacity="0.25"/>
<stop offset="0.51036" stop-color="#1E1B1B" stop-opacity="0.1"/>
<stop offset="0.75683" stop-color="#231F20" stop-opacity="0"/>
</linearGradient>
<linearGradient id="paint3_linear_1_294" x1="37.9354" y1="87.9841" x2="37.9354" y2="0.99761" gradientUnits="userSpaceOnUse">
<stop offset="0.17505" stop-color="white" stop-opacity="0"/>
<stop offset="1" stop-color="white" stop-opacity="0.5"/>
</linearGradient>
</defs>
</svg>
