<svg width="89" height="88" viewBox="0 0 89 88" fill="none" xmlns="http://www.w3.org/2000/svg">
<path d="M76.3361 44.497H67.2485C67.2485 47.5891 66.5503 50.537 65.287 53.1857C61.7737 60.6332 53.8718 65.8308 44.7068 65.8308C44.5551 65.8308 44.4087 65.8121 44.2579 65.8093V87.9847C44.4082 87.9861 44.5563 87.9964 44.7068 87.9964C66.2955 87.9964 84.3709 73.024 88.5157 53.1863V53.1746L76.3361 44.497Z" fill="url(#paint0_linear_1_88)"/>
<path d="M76.3361 44.497L64.1454 35.8084H48.7075V53.1857H65.287C61.7738 60.6332 53.8718 65.8308 44.7068 65.8308C44.5552 65.8308 44.4088 65.8121 44.2579 65.8093C32.0322 65.5798 22.1651 56.1123 22.1651 44.497C22.1651 32.7274 32.2723 23.1632 44.7068 23.1632C50.7023 23.1632 56.1661 25.3907 60.2 29.0037L75.8709 13.333C67.8026 5.70822 56.809 0.998184 44.7068 0.998184C20.0592 0.998184 6.10352e-05 20.5145 6.10352e-05 44.497C6.10352e-05 68.333 19.817 87.7483 44.2579 87.9847C44.4082 87.9861 44.5564 87.9964 44.7068 87.9964C66.2955 87.9964 84.3709 73.0239 88.5158 53.1863V53.1746L76.3361 44.497Z" fill="#194244"/>
<path d="M48.7075 53.1858V35.8084H64.1454L76.3362 44.4971L88.5158 53.1747V53.1858H48.7075Z" fill="url(#paint1_linear_1_88)"/>
<path d="M48.7075 53.1858V35.8084H64.1454L76.3362 44.4971L88.5158 53.1747V53.1858H48.7075Z" fill="url(#paint2_linear_1_88)"/>
<path d="M22.165 44.497C22.165 32.7274 32.2723 23.1632 44.7067 23.1632C50.7022 23.1632 56.166 25.3908 60.1999 29.0038L75.8708 13.333C67.8026 5.70826 56.8089 0.998215 44.7067 0.998215C20.0592 0.998215 0 20.5145 0 44.497C0 68.333 19.817 87.7483 44.2579 87.9847V65.8093C32.0321 65.5799 22.165 56.1123 22.165 44.497Z" fill="url(#paint3_linear_1_88)"/>
<defs>
<linearGradient id="paint0_linear_1_88" x1="71.6323" y1="43.4769" x2="60.8024" y2="77.3202" gradientUnits="userSpaceOnUse">
<stop stop-opacity="0.4"/>
<stop offset="0.27595" stop-color="#0F0D0D" stop-opacity="0.28962"/>
<stop offset="0.67484" stop-color="#1E1A1B" stop-opacity="0.13006"/>
<stop offset="1" stop-color="#231F20" stop-opacity="0"/>
</linearGradient>
<linearGradient id="paint1_linear_1_88" x1="48.7075" y1="44.4971" x2="88.5158" y2="44.4971" gradientUnits="userSpaceOnUse">
<stop offset="0.30327" stop-color="white" stop-opacity="0"/>
<stop offset="1" stop-color="white" stop-opacity="0.5"/>
</linearGradient>
<linearGradient id="paint2_linear_1_88" x1="48.7075" y1="44.4971" x2="88.5158" y2="44.4971" gradientUnits="userSpaceOnUse">
<stop stop-opacity="0.4"/>
<stop offset="0.2169" stop-color="#0F0E0E" stop-opacity="0.25"/>
<stop offset="0.51036" stop-color="#1E1B1B" stop-opacity="0.1"/>
<stop offset="0.75683" stop-color="#231F20" stop-opacity="0"/>
</linearGradient>
<linearGradient id="paint3_linear_1_88" x1="37.9354" y1="87.9847" x2="37.9354" y2="0.998235" gradientUnits="userSpaceOnUse">
<stop offset="0.17505" stop-color="white" stop-opacity="0"/>
<stop offset="1" stop-color="white" stop-opacity="0.5"/>
</linearGradient>
</defs>
</svg>
